<svg width="24" height="21" viewBox="0 0 24 21" fill="none" xmlns="http://www.w3.org/2000/svg">
<path d="M24 3.07258C24.0013 2.67171 23.9154 2.27458 23.7473 1.90419C23.5793 1.53379 23.3324 1.19748 23.0209 0.91472C21.7575 -0.238989 19.553 -0.238989 18.2896 0.91472L6.90572 11.3011C5.86758 11.3703 4.85508 11.7335 4.09682 12.4254C2.51786 13.8649 2.58477 15.0766 2.63718 16.0513C2.6829 16.8886 2.71523 17.4929 1.60795 18.5042L0 19.9713C2.02499 20.2063 2.50225 20.2968 3.61734 20.2968C5.2855 20.2968 8.38544 20.0211 10.4026 18.1807C11.1632 17.4838 11.6178 16.5569 11.6805 15.5752L23.0198 5.23044C23.3317 4.9479 23.5789 4.61165 23.7472 4.24122C23.9154 3.87079 24.0014 3.47356 24 3.07258ZM8.82701 16.7421C7.66398 17.8032 5.86646 18.14 4.51721 18.2315C4.93983 17.3393 4.89857 16.5732 4.86512 15.9516C4.76811 14.162 6.07275 13.2688 7.25028 13.2688C7.84574 13.2688 8.40551 13.4804 8.82701 13.8649C9.0347 14.0535 9.1995 14.2777 9.31196 14.5246C9.42441 14.7715 9.4823 15.0362 9.4823 15.3035C9.4823 15.5709 9.42441 15.8356 9.31196 16.0825C9.1995 16.3293 9.0347 16.5535 8.82701 16.7421ZM21.4431 3.79187L11.0806 13.2464C10.8939 12.9477 10.6665 12.6718 10.4037 12.4254C10.1325 12.1858 9.82678 11.9811 9.49495 11.817L19.8664 2.35329C20.0789 2.16856 20.3612 2.06552 20.6547 2.06552C20.9483 2.06552 21.2306 2.16856 21.4431 2.35329C21.6538 2.54558 21.7698 2.80196 21.7698 3.07258C21.7698 3.3432 21.6538 3.59958 21.4431 3.79187Z" fill="#9128FF"/>
</svg>
