<svg width="25" height="24" viewBox="0 0 25 24" fill="none" xmlns="http://www.w3.org/2000/svg">
<path d="M3.5 11.0975V16.0909C3.5 19.1875 3.5 20.7358 4.23411 21.4123C4.58422 21.735 5.02615 21.9377 5.49692 21.9915C6.48402 22.1045 7.63675 21.0849 9.94216 19.0458C10.9612 18.1445 11.4708 17.6938 12.0603 17.5751C12.3506 17.5166 12.6494 17.5166 12.9397 17.5751C13.5292 17.6938 14.0388 18.1445 15.0578 19.0458C17.3633 21.0849 18.516 22.1045 19.5031 21.9915C19.9739 21.9377 20.4158 21.735 20.7659 21.4123C21.5 20.7358 21.5 19.1875 21.5 16.0909V11.0975C21.5 6.80891 21.5 4.6646 20.182 3.3323C18.864 2 16.7426 2 12.5 2C8.25736 2 6.13604 2 4.81802 3.3323C4.0108 4.14827 3.69796 5.26881 3.57672 7" stroke="#E8EBF4" stroke-width="1.5" stroke-linecap="round"/>
<path d="M15.5 6H9.5" stroke="#E8EBF4" stroke-width="1.5" stroke-linecap="round"/>
</svg>
