<svg width="16" height="16" viewBox="0 0 16 16" fill="none" xmlns="http://www.w3.org/2000/svg">
<path d="M5.93055 3.50418C6.75124 2.03195 7.16158 1.29584 7.77507 1.29584C8.38855 1.29584 8.79889 2.03195 9.61958 3.50418L9.8319 3.88506C10.0651 4.30342 10.1817 4.51261 10.3635 4.65062C10.5453 4.78864 10.7718 4.83988 11.2246 4.94234L11.6369 5.03563C13.2306 5.39621 14.0274 5.57651 14.217 6.18614C14.4066 6.79577 13.8634 7.43101 12.7769 8.70148L12.4958 9.03016C12.1871 9.39119 12.0327 9.5717 11.9633 9.79502C11.8938 10.0183 11.9172 10.2592 11.9639 10.7409L12.0064 11.1794C12.1706 12.8745 12.2527 13.722 11.7564 14.0988C11.2601 14.4756 10.514 14.1321 9.02187 13.445L8.63583 13.2673C8.21181 13.0721 7.9998 12.9744 7.77507 12.9744C7.55033 12.9744 7.33832 13.0721 6.9143 13.2673L6.52826 13.445C5.03611 14.1321 4.29004 14.4756 3.79371 14.0988C3.29739 13.722 3.37952 12.8745 3.54378 11.1794L3.58627 10.7409C3.63295 10.2592 3.65629 10.0183 3.58684 9.79502C3.5174 9.5717 3.36303 9.39119 3.05429 9.03016L2.77321 8.70148C1.68675 7.43101 1.14352 6.79577 1.3331 6.18614C1.52268 5.57651 2.31951 5.39621 3.91318 5.03563L4.32548 4.94234C4.77835 4.83988 5.00479 4.78864 5.1866 4.65062C5.36841 4.51261 5.48502 4.30342 5.71823 3.88506L5.93055 3.50418Z" stroke="#18B2FF"/>
</svg>
