<svg width="16" height="17" viewBox="0 0 16 17" fill="none" xmlns="http://www.w3.org/2000/svg">
<path d="M0.0916224 6.08384C0.147772 5.89667 0.251187 5.73029 0.390144 5.60357C0.529102 5.47684 0.698044 5.39484 0.877816 5.36685L5.0715 4.7068L6.94649 0.588322C7.02679 0.411746 7.1511 0.263056 7.30535 0.159081C7.45959 0.0551063 7.63762 0 7.81928 0C8.00094 0 8.17896 0.0551063 8.33321 0.159081C8.48746 0.263056 8.61177 0.411746 8.69207 0.588322L10.5671 4.70574L14.7607 5.3658C14.9406 5.39389 15.1095 5.47601 15.2485 5.60283C15.3874 5.72966 15.4908 5.89613 15.5469 6.08338C15.603 6.27063 15.6096 6.47117 15.566 6.66226C15.5223 6.85336 15.4301 7.02738 15.2998 7.1646L12.265 10.37L12.9811 14.8965C13.0049 15.0478 12.9979 15.2028 12.9607 15.3509C12.9235 15.4989 12.857 15.6364 12.7658 15.7537C12.6745 15.8711 12.5608 15.9654 12.4324 16.0303C12.3041 16.0951 12.1643 16.1288 12.0227 16.1291C11.868 16.1291 11.7123 16.089 11.5702 16.0078L7.81928 13.8706L4.06832 16.0078C3.90775 16.0998 3.72658 16.141 3.54543 16.1269C3.36429 16.1127 3.19046 16.0437 3.04374 15.9277C2.89692 15.812 2.78286 15.6541 2.71443 15.4719C2.64601 15.2897 2.62594 15.0904 2.65648 14.8965L3.37262 10.37L0.337796 7.1646C0.207666 7.02738 0.115626 6.85339 0.0721149 6.66236C0.0286026 6.47133 0.0353613 6.27092 0.0916224 6.08384ZM4.4186 10.002L3.61587 15.0747L7.81928 12.6801V1.05437L5.71758 5.66946L1.01793 6.40965L4.4186 10.002Z" fill="#18B2FF"/>
</svg>
