<svg width="27" height="22" viewBox="0 0 27 22" fill="none" xmlns="http://www.w3.org/2000/svg">
<path d="M13.5 21.3092C12.7199 21.3104 11.9524 21.1243 11.2711 20.7686C4.0025 16.955 0 12.2572 0 7.54097C0 3.33994 3.14015 0.0494385 7.1485 0.0494385C8.34205 0.0503975 9.52248 0.282481 10.6155 0.731093C11.7086 1.1797 12.6907 1.83514 13.5 2.65618C14.3093 1.83514 15.2914 1.1797 16.3845 0.731093C17.4775 0.282481 18.658 0.0503975 19.8515 0.0494385C23.8598 0.0494385 27 3.33994 27 7.54097C27 12.2572 22.9975 16.955 15.7289 20.7686C15.0475 21.1242 14.2801 21.3103 13.5 21.3092ZM7.1485 1.54128C3.98178 1.54128 1.59399 4.12067 1.59399 7.54097C1.59399 11.6938 5.30744 15.9291 12.05 19.4668C12.4935 19.6977 12.9925 19.8189 13.5 19.8189C14.0075 19.8189 14.5065 19.6977 14.95 19.4668C21.6926 15.9291 25.406 11.6938 25.406 7.54097C25.406 4.12067 23.0182 1.54128 19.8515 1.54128C18.7442 1.54467 17.6532 1.79082 16.6659 2.26C15.6787 2.72918 14.8226 3.40833 14.1663 4.24301C14.0948 4.34709 13.9961 4.43231 13.8794 4.49054C13.7628 4.54878 13.6322 4.57809 13.5 4.57569C13.3689 4.57546 13.2399 4.54498 13.1245 4.48695C13.009 4.42892 12.9106 4.34513 12.838 4.24301C12.1813 3.40779 11.3245 2.72831 10.3364 2.2591C9.34833 1.7899 8.25648 1.54405 7.1485 1.54128Z" fill="#2C81FF"/>
</svg>
