<svg width="27" height="26" viewBox="0 0 27 26" fill="none" xmlns="http://www.w3.org/2000/svg">
<path d="M25.5 7.61394L16.5 0.965571C15.675 0.343765 14.6069 0 13.5 0C12.3932 0 11.3251 0.343765 10.5001 0.965571L1.50013 7.61394C1.02369 7.973 0.643488 8.41346 0.384847 8.90601C0.126207 9.39855 -0.0049388 9.93187 0.00014219 10.4705V21.5174C0.00014219 22.523 0.474245 23.4875 1.31815 24.1986C2.16206 24.9097 3.30664 25.3092 4.50011 25.3092H22.5C23.6934 25.3092 24.838 24.9097 25.6819 24.1986C26.5259 23.4875 27 22.523 27 21.5174V10.4578C27.0029 9.92136 26.8707 9.39047 26.6122 8.90024C26.3536 8.41 25.9745 7.97158 25.5 7.61394ZM16.5 22.7813H10.5001V16.4616C10.5001 16.1264 10.6581 15.8049 10.9394 15.5678C11.2207 15.3308 11.6022 15.1976 12.0001 15.1976H15C15.3979 15.1976 15.7794 15.3308 16.0607 15.5678C16.342 15.8049 16.5 16.1264 16.5 16.4616V22.7813ZM24 21.5174C24 21.8526 23.8419 22.1741 23.5606 22.4111C23.2793 22.6482 22.8978 22.7813 22.5 22.7813H19.5V16.4616C19.5 15.4559 19.0259 14.4915 18.182 13.7803C17.3381 13.0692 16.1935 12.6697 15 12.6697H12.0001C10.8066 12.6697 9.66201 13.0692 8.8181 13.7803C7.97419 14.4915 7.50009 15.4559 7.50009 16.4616V22.7813H4.50011C4.10229 22.7813 3.72076 22.6482 3.43946 22.4111C3.15816 22.1741 3.00012 21.8526 3.00012 21.5174V10.4578C3.00039 10.2784 3.04601 10.101 3.13395 9.93756C3.22188 9.77411 3.35012 9.62831 3.51012 9.50986L12.5101 2.87413C12.7838 2.6715 13.1357 2.55975 13.5 2.55975C13.8644 2.55975 14.2163 2.6715 14.49 2.87413L23.49 9.50986C23.65 9.62831 23.7782 9.77411 23.8661 9.93756C23.9541 10.101 23.9997 10.2784 24 10.4578V21.5174Z" fill="#2C81FF"/>
</svg>
