<svg width="24" height="25" viewBox="0 0 24 25" fill="none" xmlns="http://www.w3.org/2000/svg">
<path d="M6 10.5V8.5C6 8.15929 6.0284 7.82521 6.08296 7.5M18 10.5V8.5C18 5.18629 15.3137 2.5 12 2.5C10.208 2.5 8.59942 3.28563 7.5 4.53126" stroke="#18B2FF" stroke-width="1.5" stroke-linecap="round"/>
<path d="M11 22.5H8C5.17157 22.5 3.75736 22.5 2.87868 21.6213C2 20.7426 2 19.3284 2 16.5C2 13.6716 2 12.2574 2.87868 11.3787C3.75736 10.5 5.17157 10.5 8 10.5H16C18.8284 10.5 20.2426 10.5 21.1213 11.3787C22 12.2574 22 13.6716 22 16.5C22 19.3284 22 20.7426 21.1213 21.6213C20.2426 22.5 18.8284 22.5 16 22.5H15" stroke="#18B2FF" stroke-width="1.5" stroke-linecap="round"/>
</svg>
