<svg width="23" height="15" viewBox="0 0 23 15" fill="none" xmlns="http://www.w3.org/2000/svg">
<path d="M1.15 0.0865479C0.922552 0.0865479 0.700211 0.155818 0.511095 0.285599C0.321978 0.415379 0.17458 0.599841 0.087539 0.815659C0.000498273 1.03148 -0.0222756 1.26895 0.0220974 1.49807C0.0664704 1.72718 0.175997 1.93763 0.336828 2.10281C0.497658 2.26799 0.702569 2.38047 0.925647 2.42605C1.14872 2.47162 1.37995 2.44823 1.59009 2.35884C1.80022 2.26944 1.97983 2.11806 2.10619 1.92383C2.23255 1.7296 2.3 1.50124 2.3 1.26764C2.3 0.954398 2.17884 0.653982 1.96317 0.432483C1.74751 0.210985 1.455 0.0865479 1.15 0.0865479ZM5.75 2.44874H21.85C22.155 2.44874 22.4475 2.3243 22.6632 2.10281C22.8788 1.88131 23 1.58089 23 1.26764C23 0.954398 22.8788 0.653982 22.6632 0.432483C22.4475 0.210985 22.155 0.0865479 21.85 0.0865479H5.75C5.445 0.0865479 5.15249 0.210985 4.93683 0.432483C4.72116 0.653982 4.6 0.954398 4.6 1.26764C4.6 1.58089 4.72116 1.88131 4.93683 2.10281C5.15249 2.3243 5.445 2.44874 5.75 2.44874ZM5.75 5.99203C5.52255 5.99203 5.30021 6.0613 5.11109 6.19108C4.92198 6.32086 4.77458 6.50533 4.68754 6.72114C4.6005 6.93696 4.57772 7.17444 4.6221 7.40355C4.66647 7.63266 4.776 7.84311 4.93683 8.00829C5.09766 8.17347 5.30257 8.28596 5.52565 8.33153C5.74872 8.3771 5.97995 8.35371 6.19009 8.26432C6.40022 8.17493 6.57983 8.02354 6.70619 7.82931C6.83255 7.63508 6.9 7.40673 6.9 7.17313C6.9 6.85988 6.77884 6.55947 6.56317 6.33797C6.34751 6.11647 6.055 5.99203 5.75 5.99203ZM10.35 11.8975C10.1226 11.8975 9.90021 11.9668 9.71109 12.0966C9.52198 12.2263 9.37458 12.4108 9.28754 12.6266C9.2005 12.8424 9.17772 13.0799 9.2221 13.309C9.26647 13.5381 9.376 13.7486 9.53683 13.9138C9.69766 14.079 9.90257 14.1914 10.1256 14.237C10.3487 14.2826 10.58 14.2592 10.7901 14.1698C11.0002 14.0804 11.1798 13.929 11.3062 13.7348C11.4326 13.5406 11.5 13.3122 11.5 13.0786C11.5 12.7654 11.3788 12.4649 11.1632 12.2435C10.9475 12.022 10.655 11.8975 10.35 11.8975ZM21.85 5.99203H10.35C10.045 5.99203 9.75249 6.11647 9.53683 6.33797C9.32116 6.55947 9.2 6.85988 9.2 7.17313C9.2 7.48638 9.32116 7.78679 9.53683 8.00829C9.75249 8.22979 10.045 8.35423 10.35 8.35423H21.85C22.155 8.35423 22.4475 8.22979 22.6632 8.00829C22.8788 7.78679 23 7.48638 23 7.17313C23 6.85988 22.8788 6.55947 22.6632 6.33797C22.4475 6.11647 22.155 5.99203 21.85 5.99203ZM21.85 11.8975H14.95C14.645 11.8975 14.3525 12.022 14.1368 12.2435C13.9212 12.4649 13.8 12.7654 13.8 13.0786C13.8 13.3919 13.9212 13.6923 14.1368 13.9138C14.3525 14.1353 14.645 14.2597 14.95 14.2597H21.85C22.155 14.2597 22.4475 14.1353 22.6632 13.9138C22.8788 13.6923 23 13.3919 23 13.0786C23 12.7654 22.8788 12.4649 22.6632 12.2435C22.4475 12.022 22.155 11.8975 21.85 11.8975Z" fill="#9128FF"/>
</svg>
