<svg width="359" height="180" viewBox="0 0 359 180" fill="none" xmlns="http://www.w3.org/2000/svg">
<rect x="-0.00976562" y="0.000106812" width="359.009" height="180" rx="8" fill="#393C4C"/>
<path d="M141.447 101V86.0001H143.787V99.7401L142.707 98.8701H147.027V101H141.447ZM134.967 91.1001V88.9401H141.447V91.1001H134.967ZM129.477 107.63C129.217 107.63 128.947 107.61 128.667 107.57C128.367 107.55 128.077 107.53 127.797 107.51L128.067 105.38C128.347 105.4 128.607 105.42 128.847 105.44C129.087 105.48 129.297 105.5 129.477 105.5C130.417 105.5 131.177 105.14 131.757 104.42C132.337 103.72 132.627 102.74 132.627 101.48V86.0001H134.967V101.48C134.967 102.7 134.727 103.77 134.247 104.69C133.787 105.63 133.147 106.35 132.327 106.85C131.507 107.37 130.557 107.63 129.477 107.63ZM147.027 101V98.8701C147.287 98.8701 147.447 98.9701 147.507 99.1701C147.587 99.3501 147.627 99.6001 147.627 99.9201C147.627 100.24 147.587 100.5 147.507 100.7C147.447 100.9 147.287 101 147.027 101ZM141.447 106.4V103.7H143.787V106.4H141.447ZM161.869 101V98.8701H165.109V101H161.869ZM147.019 101V98.8701H160.249L159.529 99.5001V92.0601C159.529 90.7601 159.119 89.7901 158.299 89.1501C157.499 88.4901 156.269 88.1601 154.609 88.1601C154.089 88.1601 153.339 88.2101 152.359 88.3101C151.379 88.3901 150.349 88.5101 149.269 88.6701L148.999 86.7501C149.819 86.5501 150.719 86.3801 151.699 86.2401C152.679 86.0801 153.629 86.0001 154.549 86.0001C156.069 86.0001 157.369 86.2401 158.449 86.7201C159.549 87.1801 160.389 87.8601 160.969 88.7601C161.569 89.6601 161.869 90.7601 161.869 92.0601V101H147.019ZM147.019 101C146.759 101 146.599 100.9 146.539 100.7C146.459 100.5 146.419 100.24 146.419 99.9201C146.419 99.6001 146.459 99.3501 146.539 99.1701C146.599 98.9701 146.759 98.8701 147.019 98.8701V101ZM165.109 101V98.8701C165.369 98.8701 165.529 98.9701 165.589 99.1701C165.669 99.3501 165.709 99.6001 165.709 99.9201C165.709 100.24 165.669 100.5 165.589 100.7C165.529 100.9 165.369 101 165.109 101ZM153.379 83.9301V81.2301H155.719V83.9301H153.379ZM168.726 101V79.4901H171.066V101H168.726ZM165.096 101V98.8701H168.726V101H165.096ZM165.096 101C164.836 101 164.676 100.9 164.616 100.7C164.536 100.5 164.496 100.24 164.496 99.9201C164.496 99.6001 164.536 99.3501 164.616 99.1701C164.676 98.9701 164.836 98.8701 165.096 98.8701V101ZM176.237 101V79.4901H178.547V101H176.237ZM189.206 101V93.8001C189.206 91.8801 189.486 90.3501 190.046 89.2101C190.606 88.0701 191.446 87.2501 192.566 86.7501C193.706 86.2501 195.106 86.0001 196.766 86.0001C198.446 86.0001 199.846 86.2501 200.966 86.7501C202.086 87.2501 202.926 88.0701 203.486 89.2101C204.046 90.3501 204.326 91.8801 204.326 93.8001V101H189.206ZM191.546 99.8901L190.316 98.8701H203.216L202.016 99.8901V93.8001C202.016 92.3601 201.856 91.2301 201.536 90.4101C201.216 89.5701 200.666 88.9801 199.886 88.6401C199.126 88.3001 198.086 88.1301 196.766 88.1301C195.446 88.1301 194.406 88.3001 193.646 88.6401C192.886 88.9801 192.346 89.5701 192.026 90.4101C191.706 91.2301 191.546 92.3601 191.546 93.8001V99.8901ZM193.556 83.3001V80.6001H195.896V83.3001H193.556ZM197.666 83.3001V80.6001H200.006V83.3001H197.666ZM205.795 107.63C205.535 107.63 205.265 107.61 204.985 107.57C204.685 107.55 204.395 107.53 204.115 107.51L204.385 105.38C204.665 105.4 204.925 105.42 205.165 105.44C205.405 105.48 205.615 105.5 205.795 105.5C206.735 105.5 207.495 105.14 208.075 104.42C208.655 103.72 208.945 102.74 208.945 101.48V86.0001H211.285V101.48C211.285 102.7 211.045 103.77 210.565 104.69C210.105 105.63 209.465 106.35 208.645 106.85C207.825 107.37 206.875 107.63 205.795 107.63ZM227.506 101V98.8701H230.746V101H227.506ZM220.396 107.63C219.696 107.63 218.946 107.57 218.146 107.45C217.366 107.35 216.506 107.2 215.566 107L215.926 105.11C216.986 105.25 217.866 105.35 218.566 105.41C219.286 105.47 219.896 105.5 220.396 105.5C222.056 105.5 223.266 105.18 224.026 104.54C224.786 103.92 225.166 103.01 225.166 101.81V87.3501L226.366 88.1301H221.296C220.136 88.1301 219.236 88.2701 218.596 88.5501C217.976 88.8301 217.546 89.3601 217.306 90.1401C217.066 90.9001 216.946 92.0201 216.946 93.5001C216.946 94.9801 217.066 96.1101 217.306 96.8901C217.546 97.6501 217.976 98.1701 218.596 98.4501C219.236 98.7301 220.136 98.8701 221.296 98.8701H225.166V101H221.296C219.556 101 218.196 100.74 217.216 100.22C216.256 99.6801 215.576 98.8601 215.176 97.7601C214.796 96.6401 214.606 95.2201 214.606 93.5001C214.606 91.7801 214.796 90.3701 215.176 89.2701C215.576 88.1501 216.256 87.3301 217.216 86.8101C218.196 86.2701 219.556 86.0001 221.296 86.0001H227.506V101.78C227.506 103.02 227.216 104.08 226.636 104.96C226.076 105.84 225.266 106.5 224.206 106.94C223.146 107.4 221.876 107.63 220.396 107.63ZM230.746 101V98.8701C231.006 98.8701 231.166 98.9701 231.226 99.1701C231.306 99.3501 231.346 99.6001 231.346 99.9201C231.346 100.24 231.306 100.5 231.226 100.7C231.166 100.9 231.006 101 230.746 101ZM230.75 101V98.8701H252.92L250.76 100.82V93.7701C250.76 92.5101 250.58 91.4701 250.22 90.6501C249.88 89.8101 249.36 89.1801 248.66 88.7601C247.98 88.3401 247.12 88.1301 246.08 88.1301C245.2 88.1301 244.38 88.2801 243.62 88.5801C242.88 88.8601 242.19 89.2401 241.55 89.7201C240.91 90.1801 240.31 90.7001 239.75 91.2801C239.21 91.8401 238.71 92.4101 238.25 92.9901C237.79 93.5701 237.37 94.1001 236.99 94.5801L236.24 92.4501C236.74 91.8301 237.24 91.2101 237.74 90.5901C238.26 89.9701 238.8 89.3901 239.36 88.8501C239.92 88.2901 240.53 87.8001 241.19 87.3801C241.87 86.9601 242.61 86.6301 243.41 86.3901C244.21 86.1301 245.11 86.0001 246.11 86.0001C247.53 86.0001 248.69 86.2401 249.59 86.7201C250.51 87.2001 251.22 87.8401 251.72 88.6401C252.24 89.4201 252.6 90.2601 252.8 91.1601C253 92.0601 253.1 92.9301 253.1 93.7701V101H230.75ZM235.01 98.8701V86.0001H237.35V98.8701H235.01ZM230.75 101C230.49 101 230.33 100.9 230.27 100.7C230.19 100.5 230.15 100.24 230.15 99.9201C230.15 99.6001 230.19 99.3501 230.27 99.1701C230.33 98.9701 230.49 98.8701 230.75 98.8701V101Z" fill="#CCCCCC"/>
<path d="M112.629 80.0001H93.781C92.7099 80.0001 91.6826 80.4537 90.9251 81.261C90.1677 82.0684 89.7422 83.1634 89.7422 84.3052V104.396C89.7422 105.537 90.1677 106.632 90.9251 107.44C91.6826 108.247 92.7099 108.701 93.781 108.701H112.629C112.85 108.697 113.071 108.673 113.289 108.629L113.693 108.529H113.787H113.854L114.352 108.328L114.527 108.227C114.662 108.141 114.81 108.069 114.945 107.969C115.124 107.828 115.295 107.675 115.456 107.51L115.55 107.381C115.683 107.238 115.804 107.084 115.914 106.921L116.035 106.735C116.129 106.575 116.21 106.407 116.277 106.233C116.314 106.164 116.346 106.092 116.372 106.017C116.439 105.845 116.479 105.658 116.533 105.472V105.257C116.61 104.976 116.655 104.687 116.668 104.396V84.3052C116.668 83.1634 116.242 82.0684 115.485 81.261C114.727 80.4537 113.7 80.0001 112.629 80.0001ZM93.781 105.831C93.424 105.831 93.0815 105.68 92.8291 105.41C92.5766 105.141 92.4348 104.776 92.4348 104.396V98.2107L96.864 93.4751C96.9892 93.3406 97.1381 93.2338 97.3021 93.1609C97.4662 93.0881 97.6422 93.0506 97.8199 93.0506C97.9976 93.0506 98.1736 93.0881 98.3376 93.1609C98.5017 93.2338 98.6506 93.3406 98.7757 93.4751L110.354 105.831H93.781ZM113.975 104.396C113.974 104.573 113.942 104.748 113.881 104.912C113.85 104.982 113.814 105.049 113.773 105.113C113.737 105.174 113.697 105.232 113.652 105.285L106.45 97.608L107.634 96.3451C107.759 96.2106 107.908 96.1039 108.072 96.031C108.236 95.9582 108.412 95.9207 108.59 95.9207C108.768 95.9207 108.944 95.9582 109.108 96.031C109.272 96.1039 109.421 96.2106 109.546 96.3451L113.975 101.081V104.396ZM113.975 97.0196L111.444 94.3504C110.674 93.5712 109.652 93.1368 108.59 93.1368C107.528 93.1368 106.506 93.5712 105.736 94.3504L104.551 95.6133L100.674 91.4804C99.9035 90.7011 98.882 90.2667 97.8199 90.2667C96.7578 90.2667 95.7362 90.7011 94.9658 91.4804L92.4348 94.1495V84.3052C92.4348 83.9246 92.5766 83.5596 92.8291 83.2905C93.0815 83.0214 93.424 82.8702 93.781 82.8702H112.629C112.986 82.8702 113.328 83.0214 113.581 83.2905C113.833 83.5596 113.975 83.9246 113.975 84.3052V97.0196ZM105.224 85.7402C104.825 85.7402 104.435 85.8665 104.103 86.103C103.77 86.3395 103.512 86.6757 103.359 87.069C103.206 87.4624 103.166 87.8952 103.244 88.3127C103.322 88.7303 103.514 89.1138 103.796 89.4149C104.079 89.7159 104.439 89.9209 104.83 90.004C105.222 90.087 105.628 90.0444 105.997 89.8815C106.366 89.7186 106.682 89.4427 106.904 89.0887C107.125 88.7347 107.244 88.3185 107.244 87.8928C107.244 87.3219 107.031 86.7744 106.652 86.3707C106.274 85.967 105.76 85.7402 105.224 85.7402Z" fill="#CCCCCC"/>
</svg>
