<svg xmlns="http://www.w3.org/2000/svg" width="416" height="400" viewBox="0 0 416 400"><rect width="100%" height="100%" fill="#393C4C"/><path fill="#FFFFFF" d="M91.05 204.89h12.09v-13.01q0-1.84.25-4.06l-12.34 17.07Zm18.01 0h5v3.94q0 .54-.36.94-.35.4-1.01.4h-3.63v9.71h-5.92v-9.71H86.37q-.69 0-1.21-.42-.52-.43-.66-1.06l-.72-3.44 18.84-25.16h6.44v24.8Zm27.72 9.9h7.15v5.09h-22v-5.09h8.05v-23.18q0-1.37.09-2.83l-5.72 4.78q-.5.39-.98.48-.48.1-.91.02-.42-.09-.75-.29-.33-.21-.5-.46l-2.14-2.94 12.12-10.31h5.59v34.73Zm36.74-34.68-11.8 14.44-1.38 1.71q1.16-.58 2.49-.9 1.34-.31 2.88-.31 2.25 0 4.38.74t3.76 2.24q1.62 1.5 2.61 3.73.99 2.23.99 5.19 0 2.78-1.02 5.22-1.02 2.43-2.86 4.25-1.84 1.81-4.44 2.86-2.6 1.04-5.73 1.04-3.19 0-5.72-1.02-2.53-1.01-4.32-2.84-1.79-1.83-2.74-4.4-.95-2.57-.95-5.71 0-2.81 1.15-5.76 1.14-2.96 3.53-6.15l9.49-12.73q.49-.66 1.44-1.13.95-.47 2.19-.47h6.05Zm-10.26 34.65q1.62 0 2.98-.55 1.36-.54 2.34-1.54.98-.99 1.53-2.32.55-1.33.55-2.9 0-1.7-.53-3.07-.52-1.36-1.48-2.31-.96-.94-2.31-1.44t-2.97-.5q-1.62 0-2.94.55-1.32.56-2.26 1.53-.93.98-1.46 2.31-.52 1.33-.52 2.88 0 1.64.46 3.01.45 1.36 1.34 2.32.9.96 2.22 1.5 1.32.53 3.05.53Zm58.3-3.98-3.6 3.55-9.33-9.33-9.4 9.38-3.6-3.55 9.4-9.43-8.96-8.97 3.57-3.57 8.97 8.97 8.91-8.91 3.63 3.57-8.94 8.94 9.35 9.35Zm23.81-5.89h12.1v-13.01q0-1.84.25-4.06l-12.35 17.07Zm18.02 0h5v3.94q0 .54-.36.94-.35.4-1.01.4h-3.63v9.71h-5.92v-9.71H240.7q-.69 0-1.21-.42-.52-.43-.66-1.06l-.72-3.44 18.84-25.16h6.44v24.8Zm36.93-4.89q0 5.19-1.11 9.03-1.12 3.84-3.08 6.34-1.97 2.5-4.65 3.73-2.68 1.22-5.79 1.22t-5.76-1.22q-2.66-1.23-4.61-3.73-1.95-2.5-3.05-6.34-1.1-3.84-1.1-9.03 0-5.23 1.1-9.05 1.1-3.82 3.05-6.33 1.95-2.5 4.61-3.72 2.65-1.22 5.76-1.22t5.79 1.22q2.68 1.22 4.65 3.72 1.96 2.51 3.08 6.33 1.11 3.82 1.11 9.05Zm-7.01 0q0-4.32-.64-7.15-.63-2.83-1.69-4.51-1.06-1.68-2.43-2.35-1.38-.68-2.86-.68-1.46 0-2.82.68-1.36.67-2.41 2.35-1.04 1.68-1.66 4.51-.62 2.83-.62 7.15t.62 7.15q.62 2.83 1.66 4.51 1.05 1.68 2.41 2.35 1.36.67 2.82.67 1.48 0 2.86-.67 1.37-.67 2.43-2.35 1.06-1.68 1.69-4.51.64-2.83.64-7.15Zm38.91 0q0 5.19-1.11 9.03-1.12 3.84-3.08 6.34-1.97 2.5-4.65 3.73-2.68 1.22-5.79 1.22t-5.76-1.22q-2.66-1.23-4.61-3.73-1.95-2.5-3.05-6.34-1.1-3.84-1.1-9.03 0-5.23 1.1-9.05 1.1-3.82 3.05-6.33 1.95-2.5 4.61-3.72 2.65-1.22 5.76-1.22t5.79 1.22q2.68 1.22 4.65 3.72 1.96 2.51 3.08 6.33 1.11 3.82 1.11 9.05Zm-7.01 0q0-4.32-.64-7.15-.63-2.83-1.69-4.51-1.06-1.68-2.43-2.35-1.38-.68-2.86-.68-1.46 0-2.82.68-1.36.67-2.41 2.35-1.04 1.68-1.66 4.51-.62 2.83-.62 7.15t.62 7.15q.62 2.83 1.66 4.51 1.05 1.68 2.41 2.35 1.36.67 2.82.67 1.48 0 2.86-.67 1.37-.67 2.43-2.35 1.06-1.68 1.69-4.51.64-2.83.64-7.15Z"/></svg>