<svg xmlns="http://www.w3.org/2000/svg" width="288" height="363" viewBox="0 0 288 363"><rect width="100%" height="100%" fill="#393C4C"/><path fill="#FFFFFF" d="M67.59 186.085v-2.68q-1.66.08-2.79.29-1.13.21-1.82.53-.68.33-.97.76-.3.44-.3.95 0 1.01.6 1.44.6.43 1.56.43 1.17 0 2.03-.42.87-.43 1.69-1.3Zm-8.09-8.35-.69-1.23q2.75-2.51 6.61-2.51 1.39 0 2.49.46 1.1.46 1.86 1.27t1.16 1.95q.39 1.13.39 2.48v10.04h-1.73q-.55 0-.84-.16-.3-.17-.47-.66l-.34-1.15q-.6.54-1.17.95-.58.42-1.2.69-.62.28-1.32.43-.71.15-1.56.15-1.01 0-1.86-.27-.85-.27-1.47-.82-.62-.54-.96-1.35-.35-.8-.35-1.87 0-.61.21-1.2.2-.6.65-1.14.46-.54 1.19-1.02.73-.49 1.79-.84 1.06-.36 2.47-.58 1.41-.23 3.23-.27v-.93q0-1.6-.69-2.37-.68-.77-1.96-.77-.93 0-1.55.22-.61.22-1.07.49l-.85.49q-.38.22-.84.22-.41 0-.68-.21-.28-.21-.45-.49Zm18.74-2.75.26 1.26q.48-.48 1.01-.89.54-.41 1.14-.7.59-.29 1.27-.45.69-.16 1.49-.16 1.3 0 2.31.44t1.68 1.24q.68.8 1.03 1.91.35 1.11.35 2.44v10.12h-3.83v-10.12q0-1.46-.67-2.26-.67-.8-2.03-.8-.99 0-1.86.45-.87.45-1.64 1.23v11.5h-3.83v-15.9h2.34q.74 0 .98.69Zm14.29-.69h3.84v15.9h-3.84v-15.9Zm4.37-4.64q0 .5-.2.93-.21.44-.54.76-.33.33-.78.52t-.96.19q-.5 0-.94-.19-.44-.19-.77-.52-.32-.32-.52-.76-.19-.43-.19-.93 0-.51.19-.96.2-.45.52-.77.33-.33.77-.52.44-.2.94-.2.51 0 .96.2.45.19.78.52.33.32.54.77.2.45.2.96Zm7.2 20.54h-3.82v-15.9h2.34q.74 0 .97.69l.25 1.18q.42-.46.88-.85.45-.39.97-.67t1.12-.44q.6-.16 1.31-.16 1.5 0 2.47.81.97.82 1.45 2.16.37-.79.93-1.35.56-.57 1.23-.92.66-.36 1.41-.53.76-.17 1.51-.17 1.32 0 2.35.4 1.02.4 1.72 1.18.69.78 1.06 1.89.36 1.12.36 2.56v10.12h-3.83v-10.12q0-1.52-.66-2.29-.67-.77-1.96-.77-.59 0-1.09.21-.5.2-.88.58-.38.38-.6.95-.22.57-.22 1.32v10.12h-3.84v-10.12q0-1.6-.64-2.33-.65-.73-1.89-.73-.83 0-1.55.42-.73.41-1.35 1.12v11.64Zm25.16-9.78h7.22q0-.74-.21-1.4-.2-.66-.62-1.16-.42-.49-1.06-.78-.65-.29-1.5-.29-1.66 0-2.61.95-.96.94-1.22 2.68Zm9.77 2.31h-9.85q.1 1.22.44 2.11.34.9.9 1.48.55.58 1.32.87.77.28 1.7.28.93 0 1.6-.21.68-.22 1.18-.49.51-.26.88-.48.38-.21.74-.21.48 0 .71.35l1.1 1.4q-.63.74-1.42 1.25-.79.5-1.65.8-.86.3-1.75.43-.89.12-1.73.12-1.66 0-3.09-.55-1.42-.55-2.48-1.63-1.05-1.07-1.65-2.66-.61-1.59-.61-3.68 0-1.63.53-3.06.52-1.44 1.51-2.5.98-1.06 2.4-1.68 1.42-.62 3.2-.62 1.51 0 2.78.48 1.27.48 2.18 1.4.92.92 1.44 2.27.52 1.34.52 3.06 0 .86-.19 1.17-.19.3-.71.3Zm11.42-8.43h3.84v15.9h-3.84v-15.9Zm4.37-4.64q0 .5-.2.93-.2.44-.54.76-.33.33-.78.52t-.96.19q-.5 0-.94-.19-.44-.19-.76-.52-.33-.32-.52-.76-.2-.43-.2-.93 0-.51.2-.96.19-.45.52-.77.32-.33.76-.52.44-.2.94-.2.51 0 .96.2.45.19.78.52.34.32.54.77t.2.96Zm7.21 20.54h-3.83v-15.9h2.34q.74 0 .98.69l.24 1.18q.42-.46.88-.85.46-.39.98-.67t1.11-.44q.6-.16 1.31-.16 1.51 0 2.47.81.97.82 1.45 2.16.38-.79.93-1.35.56-.57 1.23-.92.67-.36 1.42-.53.75-.17 1.51-.17 1.32 0 2.34.4 1.02.4 1.72 1.18.7.78 1.06 1.89.37 1.12.37 2.56v10.12h-3.83v-10.12q0-1.52-.67-2.29t-1.95-.77q-.59 0-1.1.21-.5.2-.88.58-.38.38-.6.95-.21.57-.21 1.32v10.12h-3.85v-10.12q0-1.6-.64-2.33t-1.88-.73q-.84 0-1.56.42-.72.41-1.34 1.12v11.64Zm30.53-4.11v-2.68q-1.66.08-2.79.29-1.13.21-1.81.53-.68.33-.98.76-.29.44-.29.95 0 1.01.6 1.44.59.43 1.55.43 1.18 0 2.04-.42.86-.43 1.68-1.3Zm-8.09-8.35-.68-1.23q2.74-2.51 6.6-2.51 1.4 0 2.5.46t1.86 1.27q.76.81 1.15 1.95.4 1.13.4 2.48v10.04h-1.74q-.54 0-.83-.16-.3-.17-.47-.66l-.34-1.15q-.6.54-1.18.95-.57.42-1.19.69-.62.28-1.33.43-.7.15-1.55.15-1.01 0-1.86-.27-.86-.27-1.48-.82-.62-.54-.96-1.35-.34-.8-.34-1.87 0-.61.2-1.2.2-.6.66-1.14.46-.54 1.19-1.02.73-.49 1.79-.84 1.06-.36 2.47-.58 1.41-.23 3.22-.27v-.93q0-1.6-.68-2.37t-1.97-.77q-.93 0-1.54.22t-1.08.49q-.46.27-.84.49-.38.22-.85.22-.4 0-.68-.21t-.45-.49Zm21.24 4.12q.71 0 1.24-.19.52-.2.87-.54t.53-.82q.18-.48.18-1.05 0-1.18-.71-1.87-.7-.69-2.11-.69t-2.12.69q-.7.69-.7 1.87 0 .56.17 1.04.18.48.53.82.35.35.88.55.54.19 1.24.19Zm4.32 9.05q0-.46-.28-.76-.28-.29-.76-.45-.48-.17-1.12-.24-.64-.08-1.36-.12-.73-.04-1.49-.07-.77-.03-1.5-.12-.63.35-1.03.83-.39.48-.39 1.12 0 .42.2.78.21.37.67.63.46.26 1.19.41.73.15 1.78.15 1.07 0 1.84-.17.78-.16 1.28-.44.51-.29.74-.69.23-.39.23-.86Zm-.76-16.07h4.57v1.43q0 .68-.82.83l-1.42.27q.32.82.32 1.79 0 1.18-.47 2.14-.47.95-1.31 1.61-.84.67-1.98 1.04-1.14.36-2.45.36-.47 0-.9-.05-.44-.04-.85-.12-.75.45-.75 1.01 0 .48.44.7.45.23 1.17.32.73.09 1.66.12.93.02 1.91.1.98.07 1.91.27.93.19 1.65.61.73.42 1.17 1.14.45.72.45 1.85 0 1.06-.52 2.05-.52.99-1.51 1.77-.98.77-2.42 1.24-1.43.48-3.26.48-1.8 0-3.13-.35-1.33-.35-2.22-.93-.88-.58-1.31-1.34-.44-.76-.44-1.58 0-1.12.68-1.87.67-.75 1.85-1.2-.64-.33-1.01-.87t-.37-1.43q0-.35.13-.73t.39-.76q.26-.37.64-.7.39-.33.92-.6-1.21-.65-1.9-1.73-.69-1.09-.69-2.55 0-1.17.47-2.13.47-.95 1.32-1.62.84-.68 2-1.04 1.15-.35 2.52-.35 1.02 0 1.92.21.9.21 1.64.61Zm10.02 5.58h7.22q0-.74-.21-1.4-.21-.66-.63-1.16-.42-.49-1.06-.78-.64-.29-1.5-.29-1.65 0-2.61.95-.95.94-1.21 2.68Zm9.76 2.31h-9.84q.09 1.22.43 2.11.34.9.9 1.48t1.33.87q.76.28 1.69.28.93 0 1.61-.21.67-.22 1.18-.49.5-.26.88-.48.38-.21.74-.21.48 0 .71.35l1.1 1.4q-.64.74-1.43 1.25-.79.5-1.65.8-.86.3-1.75.43-.89.12-1.73.12-1.66 0-3.08-.55-1.43-.55-2.48-1.63-1.06-1.07-1.66-2.66-.61-1.59-.61-3.68 0-1.63.53-3.06.53-1.44 1.51-2.5.99-1.06 2.41-1.68 1.41-.62 3.2-.62 1.5 0 2.77.48t2.19 1.4q.91.92 1.43 2.27.52 1.34.52 3.06 0 .86-.19 1.17-.18.3-.71.3Z"/></svg>